<svg xmlns="http://www.w3.org/2000/svg" xmlns:svg="http://www.w3.org/2000/svg" id="svg2" width="201" height="201" version="1.1"><defs id="defs4"><marker id="Arrow1Mend" orient="auto" overflow="visible" refX="0" refY="0"><path id="path4908" fill-rule="evenodd" stroke="#000" stroke-width="1pt" marker-start="none" d="M 0,0 5,-5 -12.5,0 5,5 0,0 z" transform="matrix(-0.4,0,0,-0.4,-4,0)"/></marker><marker id="marker5852" orient="auto" overflow="visible" refX="0" refY="0"><path id="path5854" fill-rule="evenodd" stroke="#000" stroke-width="1pt" marker-start="none" d="M 0,0 5,-5 -12.5,0 5,5 0,0 z" transform="matrix(-0.4,0,0,-0.4,-4,0)"/></marker><marker id="marker5856" orient="auto" overflow="visible" refX="0" refY="0"><path id="path5858" fill-rule="evenodd" stroke="#000" stroke-width="1pt" marker-start="none" d="M 0,0 5,-5 -12.5,0 5,5 0,0 z" transform="matrix(-0.4,0,0,-0.4,-4,0)"/></marker><marker id="marker5860" orient="auto" overflow="visible" refX="0" refY="0"><path id="path5862" fill-rule="evenodd" stroke="#000" stroke-width="1pt" marker-start="none" d="M 0,0 5,-5 -12.5,0 5,5 0,0 z" transform="matrix(-0.4,0,0,-0.4,-4,0)"/></marker><marker id="marker5864" orient="auto" overflow="visible" refX="0" refY="0"><path id="path5866" fill-rule="evenodd" stroke="#000" stroke-width="1pt" marker-start="none" d="M 0,0 5,-5 -12.5,0 5,5 0,0 z" transform="matrix(-0.4,0,0,-0.4,-4,0)"/></marker><marker id="marker5868" orient="auto" overflow="visible" refX="0" refY="0"><path id="path5870" fill-rule="evenodd" stroke="#000" stroke-width="1pt" marker-start="none" d="M 0,0 5,-5 -12.5,0 5,5 0,0 z" transform="matrix(-0.4,0,0,-0.4,-4,0)"/></marker><marker id="marker5872" orient="auto" overflow="visible" refX="0" refY="0"><path id="path5874" fill-rule="evenodd" stroke="#000" stroke-width="1pt" marker-start="none" d="M 0,0 5,-5 -12.5,0 5,5 0,0 z" transform="matrix(-0.4,0,0,-0.4,-4,0)"/></marker><marker id="marker5876" orient="auto" overflow="visible" refX="0" refY="0"><path id="path5878" fill-rule="evenodd" stroke="#000" stroke-width="1pt" marker-start="none" d="M 0,0 5,-5 -12.5,0 5,5 0,0 z" transform="matrix(-0.4,0,0,-0.4,-4,0)"/></marker><marker id="marker5880" orient="auto" overflow="visible" refX="0" refY="0"><path id="path5882" fill-rule="evenodd" stroke="#000" stroke-width="1pt" marker-start="none" d="M 0,0 5,-5 -12.5,0 5,5 0,0 z" transform="matrix(-0.4,0,0,-0.4,-4,0)"/></marker><marker id="marker5884" orient="auto" overflow="visible" refX="0" refY="0"><path id="path5886" fill-rule="evenodd" stroke="#000" stroke-width="1pt" marker-start="none" d="M 0,0 5,-5 -12.5,0 5,5 0,0 z" transform="matrix(-0.4,0,0,-0.4,-4,0)"/></marker><marker id="marker5888" orient="auto" overflow="visible" refX="0" refY="0"><path id="path5890" fill-rule="evenodd" stroke="#000" stroke-width="1pt" marker-start="none" d="M 0,0 5,-5 -12.5,0 5,5 0,0 z" transform="matrix(-0.4,0,0,-0.4,-4,0)"/></marker><marker id="marker5892" orient="auto" overflow="visible" refX="0" refY="0"><path id="path5894" fill-rule="evenodd" stroke="#000" stroke-width="1pt" marker-start="none" d="M 0,0 5,-5 -12.5,0 5,5 0,0 z" transform="matrix(-0.4,0,0,-0.4,-4,0)"/></marker><marker id="marker5896" orient="auto" overflow="visible" refX="0" refY="0"><path id="path5898" fill-rule="evenodd" stroke="#000" stroke-width="1pt" marker-start="none" d="M 0,0 5,-5 -12.5,0 5,5 0,0 z" transform="matrix(-0.4,0,0,-0.4,-4,0)"/></marker><marker id="marker5900" orient="auto" overflow="visible" refX="0" refY="0"><path id="path5902" fill-rule="evenodd" stroke="#000" stroke-width="1pt" marker-start="none" d="M 0,0 5,-5 -12.5,0 5,5 0,0 z" transform="matrix(-0.4,0,0,-0.4,-4,0)"/></marker><marker id="marker5904" orient="auto" overflow="visible" refX="0" refY="0"><path id="path5906" fill-rule="evenodd" stroke="#000" stroke-width="1pt" marker-start="none" d="M 0,0 5,-5 -12.5,0 5,5 0,0 z" transform="matrix(-0.4,0,0,-0.4,-4,0)"/></marker><marker id="marker5908" orient="auto" overflow="visible" refX="0" refY="0"><path id="path5910" fill-rule="evenodd" stroke="#000" stroke-width="1pt" marker-start="none" d="M 0,0 5,-5 -12.5,0 5,5 0,0 z" transform="matrix(-0.4,0,0,-0.4,-4,0)"/></marker><marker id="marker5912" orient="auto" overflow="visible" refX="0" refY="0"><path id="path5914" fill-rule="evenodd" stroke="#000" stroke-width="1pt" marker-start="none" d="M 0,0 5,-5 -12.5,0 5,5 0,0 z" transform="matrix(-0.4,0,0,-0.4,-4,0)"/></marker><marker id="marker5916" orient="auto" overflow="visible" refX="0" refY="0"><path id="path5918" fill-rule="evenodd" stroke="#000" stroke-width="1pt" marker-start="none" d="M 0,0 5,-5 -12.5,0 5,5 0,0 z" transform="matrix(-0.4,0,0,-0.4,-4,0)"/></marker><marker id="marker5920" orient="auto" overflow="visible" refX="0" refY="0"><path id="path5922" fill-rule="evenodd" stroke="#000" stroke-width="1pt" marker-start="none" d="M 0,0 5,-5 -12.5,0 5,5 0,0 z" transform="matrix(-0.4,0,0,-0.4,-4,0)"/></marker><marker id="Arrow1Mendp" orient="auto" overflow="visible" refX="0" refY="0"><path id="path7868" fill="#c8c8c8" fill-rule="evenodd" stroke="#c8c8c8" stroke-width="1pt" marker-start="none" d="M 0,0 5,-5 -12.5,0 5,5 0,0 z" transform="matrix(-0.4,0,0,-0.4,-4,0)"/></marker><marker id="Arrow1MendK" orient="auto" overflow="visible" refX="0" refY="0"><path id="path7871" fill="#c8c8c8" fill-rule="evenodd" stroke="#c8c8c8" stroke-width="1pt" marker-start="none" d="M 0,0 5,-5 -12.5,0 5,5 0,0 z" transform="matrix(-0.4,0,0,-0.4,-4,0)"/></marker><marker id="Arrow1MendF" orient="auto" overflow="visible" refX="0" refY="0"><path id="path7874" fill="#c8c8c8" fill-rule="evenodd" stroke="#c8c8c8" stroke-width="1pt" marker-start="none" d="M 0,0 5,-5 -12.5,0 5,5 0,0 z" transform="matrix(-0.4,0,0,-0.4,-4,0)"/></marker><marker id="Arrow1Mend-2" orient="auto" overflow="visible" refX="0" refY="0"><path id="path4908-6" fill-rule="evenodd" stroke="#000" stroke-width="1pt" marker-start="none" d="M 0,0 5,-5 -12.5,0 5,5 0,0 z" transform="matrix(-0.4,0,0,-0.4,-4,0)"/></marker><marker id="Arrow1Mend-4" orient="auto" overflow="visible" refX="0" refY="0"><path id="path4908-69" fill-rule="evenodd" stroke="#000" stroke-width="1pt" marker-start="none" d="M 0,0 5,-5 -12.5,0 5,5 0,0 z" transform="matrix(-0.4,0,0,-0.4,-4,0)"/></marker><marker id="Arrow1Mend-29" orient="auto" overflow="visible" refX="0" refY="0"><path id="path4908-4" fill-rule="evenodd" stroke="#000" stroke-width="1pt" marker-start="none" d="M 0,0 5,-5 -12.5,0 5,5 0,0 z" transform="matrix(-0.4,0,0,-0.4,-4,0)"/></marker><marker id="Arrow1Mendf" orient="auto" overflow="visible" refX="0" refY="0"><path id="path8200" fill="#00f" fill-rule="evenodd" stroke="#00f" stroke-width="1pt" marker-start="none" d="M 0,0 5,-5 -12.5,0 5,5 0,0 z" transform="matrix(-0.4,0,0,-0.4,-4,0)"/></marker><marker id="Arrow1Mendj" orient="auto" overflow="visible" refX="0" refY="0"><path id="path8203" fill="#00f" fill-rule="evenodd" stroke="#00f" stroke-width="1pt" marker-start="none" d="M 0,0 5,-5 -12.5,0 5,5 0,0 z" transform="matrix(-0.4,0,0,-0.4,-4,0)"/></marker><marker id="Arrow1Mendf-4" orient="auto" overflow="visible" refX="0" refY="0"><path id="path8200-2" fill="#00f" fill-rule="evenodd" stroke="#00f" stroke-width="1pt" marker-start="none" d="M 0,0 5,-5 -12.5,0 5,5 0,0 z" transform="matrix(-0.4,0,0,-0.4,-4,0)"/></marker><marker id="Arrow1Mend-7" orient="auto" overflow="visible" refX="0" refY="0"><path id="path4908-8" fill-rule="evenodd" stroke="#000" stroke-width="1pt" marker-start="none" d="M 0,0 5,-5 -12.5,0 5,5 0,0 z" transform="matrix(-0.4,0,0,-0.4,-4,0)"/></marker><marker id="Arrow1Mend-5" orient="auto" overflow="visible" refX="0" refY="0"><path id="path4908-9" fill-rule="evenodd" stroke="#000" stroke-width="1pt" marker-start="none" d="M 0,0 5,-5 -12.5,0 5,5 0,0 z" transform="matrix(-0.4,0,0,-0.4,-4,0)"/></marker><marker id="Arrow1Mend-9" orient="auto" overflow="visible" refX="0" refY="0"><path id="path4908-0" fill-rule="evenodd" stroke="#000" stroke-width="1pt" marker-start="none" d="M 0,0 5,-5 -12.5,0 5,5 0,0 z" transform="matrix(-0.4,0,0,-0.4,-4,0)"/></marker><marker id="Arrow1Mend-0" orient="auto" overflow="visible" refX="0" refY="0"><path id="path4908-62" fill-rule="evenodd" stroke="#000" stroke-width="1pt" marker-start="none" d="M 0,0 5,-5 -12.5,0 5,5 0,0 z" transform="matrix(-0.4,0,0,-0.4,-4,0)"/></marker><marker id="Arrow1Mend-47" orient="auto" overflow="visible" refX="0" refY="0"><path id="path4908-40" fill-rule="evenodd" stroke="#000" stroke-width="1pt" marker-start="none" d="M 0,0 5,-5 -12.5,0 5,5 0,0 z" transform="matrix(-0.4,0,0,-0.4,-4,0)"/></marker><marker id="Arrow1Mend7" orient="auto" overflow="visible" refX="0" refY="0"><path id="path9871" fill="#c8c8c8" fill-rule="evenodd" stroke="#c8c8c8" stroke-width="1pt" marker-start="none" d="M 0,0 5,-5 -12.5,0 5,5 0,0 z" transform="matrix(-0.4,0,0,-0.4,-4,0)"/></marker><marker id="Arrow1Mendv" orient="auto" overflow="visible" refX="0" refY="0"><path id="path9874" fill="#c8c8c8" fill-rule="evenodd" stroke="#c8c8c8" stroke-width="1pt" marker-start="none" d="M 0,0 5,-5 -12.5,0 5,5 0,0 z" transform="matrix(-0.4,0,0,-0.4,-4,0)"/></marker><marker id="Arrow1Mendz" orient="auto" overflow="visible" refX="0" refY="0"><path id="path10187" fill="#00f" fill-rule="evenodd" stroke="#00f" stroke-width="1pt" marker-start="none" d="M 0,0 5,-5 -12.5,0 5,5 0,0 z" transform="matrix(-0.4,0,0,-0.4,-4,0)"/></marker><marker id="Arrow1MendS" orient="auto" overflow="visible" refX="0" refY="0"><path id="path10190" fill="#00f" fill-rule="evenodd" stroke="#00f" stroke-width="1pt" marker-start="none" d="M 0,0 5,-5 -12.5,0 5,5 0,0 z" transform="matrix(-0.4,0,0,-0.4,-4,0)"/></marker><marker id="Arrow1MendzC" orient="auto" overflow="visible" refX="0" refY="0"><path id="path10530" fill="#000" fill-rule="evenodd" stroke="#000" stroke-width="1pt" marker-start="none" d="M 0,0 5,-5 -12.5,0 5,5 0,0 z" transform="matrix(-0.4,0,0,-0.4,-4,0)"/></marker><marker id="Arrow1MendSr" orient="auto" overflow="visible" refX="0" refY="0"><path id="path10533" fill="#000" fill-rule="evenodd" stroke="#000" stroke-width="1pt" marker-start="none" d="M 0,0 5,-5 -12.5,0 5,5 0,0 z" transform="matrix(-0.4,0,0,-0.4,-4,0)"/></marker><marker id="Arrow1Mend-1" orient="auto" overflow="visible" refX="0" refY="0"><path id="path4908-5" fill-rule="evenodd" stroke="#000" stroke-width="1pt" marker-start="none" d="M 0,0 5,-5 -12.5,0 5,5 0,0 z" transform="matrix(-0.4,0,0,-0.4,-4,0)"/></marker><marker id="Arrow1Mend-24" orient="auto" overflow="visible" refX="0" refY="0"><path id="path4908-88" fill-rule="evenodd" stroke="#000" stroke-width="1pt" marker-start="none" d="M 0,0 5,-5 -12.5,0 5,5 0,0 z" transform="matrix(-0.4,0,0,-0.4,-4,0)"/></marker><marker id="Arrow1Mendu" orient="auto" overflow="visible" refX="0" refY="0"><path id="path19211" fill="#c8c8c8" fill-rule="evenodd" stroke="#c8c8c8" stroke-width="1pt" marker-start="none" d="M 0,0 5,-5 -12.5,0 5,5 0,0 z" transform="matrix(-0.4,0,0,-0.4,-4,0)"/></marker><marker id="Arrow1Mendc" orient="auto" overflow="visible" refX="0" refY="0"><path id="path19552" fill="#00f" fill-rule="evenodd" stroke="#00f" stroke-width="1pt" marker-start="none" d="M 0,0 5,-5 -12.5,0 5,5 0,0 z" transform="matrix(-0.4,0,0,-0.4,-4,0)"/></marker><marker id="Arrow1Mend-44" orient="auto" overflow="visible" refX="0" refY="0"><path id="path4908-2" fill-rule="evenodd" stroke="#000" stroke-width="1pt" marker-start="none" d="M 0,0 5,-5 -12.5,0 5,5 0,0 z" transform="matrix(-0.4,0,0,-0.4,-4,0)"/></marker><marker id="Arrow1Mend-77" orient="auto" overflow="visible" refX="0" refY="0"><path id="path4908-98" fill-rule="evenodd" stroke="#000" stroke-width="1pt" marker-start="none" d="M 0,0 5,-5 -12.5,0 5,5 0,0 z" transform="matrix(-0.4,0,0,-0.4,-4,0)"/></marker><marker id="marker7740" orient="auto" overflow="visible" refX="0" refY="0"><path id="path7742" fill-rule="evenodd" stroke="#000" stroke-width="1pt" marker-start="none" d="M 0,0 5,-5 -12.5,0 5,5 0,0 z" transform="matrix(-0.4,0,0,-0.4,-4,0)"/></marker><marker id="marker7744" orient="auto" overflow="visible" refX="0" refY="0"><path id="path7746" fill-rule="evenodd" stroke="#000" stroke-width="1pt" marker-start="none" d="M 0,0 5,-5 -12.5,0 5,5 0,0 z" transform="matrix(-0.4,0,0,-0.4,-4,0)"/></marker><marker id="marker7748" orient="auto" overflow="visible" refX="0" refY="0"><path id="path7750" fill-rule="evenodd" stroke="#000" stroke-width="1pt" marker-start="none" d="M 0,0 5,-5 -12.5,0 5,5 0,0 z" transform="matrix(-0.4,0,0,-0.4,-4,0)"/></marker><marker id="Arrow1MendzC-3" orient="auto" overflow="visible" refX="0" refY="0"><path id="path10530-0" fill="#000" fill-rule="evenodd" stroke="#000" stroke-width="1pt" marker-start="none" d="M 0,0 5,-5 -12.5,0 5,5 0,0 z" transform="matrix(-0.4,0,0,-0.4,-4,0)"/></marker><marker id="marker7754" orient="auto" overflow="visible" refX="0" refY="0"><path id="path7756" fill-rule="evenodd" stroke="#000" stroke-width="1pt" marker-start="none" d="M 0,0 5,-5 -12.5,0 5,5 0,0 z" transform="matrix(-0.4,0,0,-0.4,-4,0)"/></marker><marker id="marker7758" orient="auto" overflow="visible" refX="0" refY="0"><path id="path7760" fill-rule="evenodd" stroke="#000" stroke-width="1pt" marker-start="none" d="M 0,0 5,-5 -12.5,0 5,5 0,0 z" transform="matrix(-0.4,0,0,-0.4,-4,0)"/></marker><marker id="marker7762" orient="auto" overflow="visible" refX="0" refY="0"><path id="path7764" fill-rule="evenodd" stroke="#000" stroke-width="1pt" marker-start="none" d="M 0,0 5,-5 -12.5,0 5,5 0,0 z" transform="matrix(-0.4,0,0,-0.4,-4,0)"/></marker><marker id="marker7766" orient="auto" overflow="visible" refX="0" refY="0"><path id="path7768" fill-rule="evenodd" stroke="#000" stroke-width="1pt" marker-start="none" d="M 0,0 5,-5 -12.5,0 5,5 0,0 z" transform="matrix(-0.4,0,0,-0.4,-4,0)"/></marker><marker id="marker7770" orient="auto" overflow="visible" refX="0" refY="0"><path id="path7772" fill-rule="evenodd" stroke="#000" stroke-width="1pt" marker-start="none" d="M 0,0 5,-5 -12.5,0 5,5 0,0 z" transform="matrix(-0.4,0,0,-0.4,-4,0)"/></marker><marker id="marker7774" orient="auto" overflow="visible" refX="0" refY="0"><path id="path7776" fill-rule="evenodd" stroke="#000" stroke-width="1pt" marker-start="none" d="M 0,0 5,-5 -12.5,0 5,5 0,0 z" transform="matrix(-0.4,0,0,-0.4,-4,0)"/></marker><marker id="marker7778" orient="auto" overflow="visible" refX="0" refY="0"><path id="path7780" fill-rule="evenodd" stroke="#000" stroke-width="1pt" marker-start="none" d="M 0,0 5,-5 -12.5,0 5,5 0,0 z" transform="matrix(-0.4,0,0,-0.4,-4,0)"/></marker><marker id="marker7782" orient="auto" overflow="visible" refX="0" refY="0"><path id="path7784" fill-rule="evenodd" stroke="#000" stroke-width="1pt" marker-start="none" d="M 0,0 5,-5 -12.5,0 5,5 0,0 z" transform="matrix(-0.4,0,0,-0.4,-4,0)"/></marker><marker id="marker7786" orient="auto" overflow="visible" refX="0" refY="0"><path id="path7788" fill-rule="evenodd" stroke="#000" stroke-width="1pt" marker-start="none" d="M 0,0 5,-5 -12.5,0 5,5 0,0 z" transform="matrix(-0.4,0,0,-0.4,-4,0)"/></marker><marker id="marker7790" orient="auto" overflow="visible" refX="0" refY="0"><path id="path7792" fill-rule="evenodd" stroke="#000" stroke-width="1pt" marker-start="none" d="M 0,0 5,-5 -12.5,0 5,5 0,0 z" transform="matrix(-0.4,0,0,-0.4,-4,0)"/></marker><marker id="marker7794" orient="auto" overflow="visible" refX="0" refY="0"><path id="path7796" fill-rule="evenodd" stroke="#000" stroke-width="1pt" marker-start="none" d="M 0,0 5,-5 -12.5,0 5,5 0,0 z" transform="matrix(-0.4,0,0,-0.4,-4,0)"/></marker><marker id="marker7798" orient="auto" overflow="visible" refX="0" refY="0"><path id="path7800" fill-rule="evenodd" stroke="#000" stroke-width="1pt" marker-start="none" d="M 0,0 5,-5 -12.5,0 5,5 0,0 z" transform="matrix(-0.4,0,0,-0.4,-4,0)"/></marker><marker id="Arrow1MendSr-9" orient="auto" overflow="visible" refX="0" refY="0"><path id="path10533-7" fill="#000" fill-rule="evenodd" stroke="#000" stroke-width="1pt" marker-start="none" d="M 0,0 5,-5 -12.5,0 5,5 0,0 z" transform="matrix(-0.4,0,0,-0.4,-4,0)"/></marker><marker id="marker7804" orient="auto" overflow="visible" refX="0" refY="0"><path id="path7806" fill-rule="evenodd" stroke="#000" stroke-width="1pt" marker-start="none" d="M 0,0 5,-5 -12.5,0 5,5 0,0 z" transform="matrix(-0.4,0,0,-0.4,-4,0)"/></marker></defs><metadata id="metadata7"/><g id="layer1" transform="translate(-299.5,-321.86218)"><text id="text3939-3" x="320.075" y="426.196" fill="#000" fill-opacity="1" stroke="none" font-family="Source Sans Pro" font-size="10" font-stretch="normal" font-style="normal" font-variant="normal" font-weight="normal" letter-spacing="0" text-anchor="middle" word-spacing="0" writing-mode="lr-tb" xml:space="preserve" style="text-align:center;line-height:125%;-inkscape-font-specification:Source Sans Pro"><tspan id="tspan3941-7" x="320.075" y="426.196" font-family="Source Sans Pro" font-size="10" font-stretch="normal" font-style="normal" font-variant="normal" font-weight="300" text-anchor="middle" writing-mode="lr-tb" style="text-align:center;line-height:125%;-inkscape-font-specification:Source Sans Pro Light">0.53</tspan></text><text id="text3939-8-7-23" x="439.925" y="426.196" fill="#000" fill-opacity="1" stroke="none" font-family="Source Sans Pro" font-size="10" font-stretch="normal" font-style="normal" font-variant="normal" font-weight="normal" letter-spacing="0" text-anchor="middle" word-spacing="0" writing-mode="lr-tb" xml:space="preserve" style="text-align:center;line-height:125%;-inkscape-font-specification:Source Sans Pro"><tspan id="tspan3941-4-9-2" x="439.925" y="426.196" fill="#000" fill-opacity="1" font-family="Source Sans Pro" font-size="10" font-stretch="normal" font-style="normal" font-variant="normal" font-weight="300" text-anchor="middle" writing-mode="lr-tb" style="text-align:center;line-height:125%;-inkscape-font-specification:Source Sans Pro Light">0.73</tspan></text><text id="text3939-8-7-2-6" x="480" y="426.196" fill="#000" fill-opacity="1" stroke="none" font-family="Source Sans Pro" font-size="10" font-stretch="normal" font-style="normal" font-variant="normal" font-weight="normal" letter-spacing="0" text-anchor="middle" word-spacing="0" writing-mode="lr-tb" xml:space="preserve" style="text-align:center;line-height:125%;-inkscape-font-specification:Source Sans Pro"><tspan id="tspan3941-4-9-3-3" x="480" y="426.196" fill="#000" fill-opacity="1" font-family="Source Sans Pro" font-size="10" font-stretch="normal" font-style="normal" font-variant="normal" font-weight="300" text-anchor="middle" writing-mode="lr-tb" style="text-align:center;line-height:125%;-inkscape-font-specification:Source Sans Pro Light">0.81</tspan></text><text id="text3939" x="320.075" y="466.196" fill="#000" fill-opacity="1" stroke="none" font-family="Source Sans Pro" font-size="10" font-stretch="normal" font-style="normal" font-variant="normal" font-weight="normal" letter-spacing="0" text-anchor="middle" word-spacing="0" writing-mode="lr-tb" xml:space="preserve" style="text-align:center;line-height:125%;-inkscape-font-specification:Source Sans Pro"><tspan id="tspan3941" x="320.075" y="466.196" font-family="Source Sans Pro" font-size="10" font-stretch="normal" font-style="normal" font-variant="normal" font-weight="300" text-anchor="middle" writing-mode="lr-tb" style="text-align:center;line-height:125%;-inkscape-font-specification:Source Sans Pro Light">0.59</tspan></text><text id="text3939-4" x="400" y="466.196" fill="#000" fill-opacity="1" stroke="none" font-family="Source Sans Pro" font-size="10" font-stretch="normal" font-style="normal" font-variant="normal" font-weight="normal" letter-spacing="0" text-anchor="middle" word-spacing="0" writing-mode="lr-tb" xml:space="preserve" style="text-align:center;line-height:125%;-inkscape-font-specification:Source Sans Pro"><tspan id="tspan3941-0" x="400" y="466.196" font-family="Source Sans Pro" font-size="10" font-stretch="normal" font-style="normal" font-variant="normal" font-weight="300" text-anchor="middle" writing-mode="lr-tb" style="text-align:center;line-height:125%;-inkscape-font-specification:Source Sans Pro Light">0.73</tspan></text><text id="text3939-8-7" x="439.925" y="466.196" fill="#000" fill-opacity="1" stroke="none" font-family="Source Sans Pro" font-size="10" font-stretch="normal" font-style="normal" font-variant="normal" font-weight="normal" letter-spacing="0" text-anchor="middle" word-spacing="0" writing-mode="lr-tb" xml:space="preserve" style="text-align:center;line-height:125%;-inkscape-font-specification:Source Sans Pro"><tspan id="tspan3941-4-9" x="439.925" y="466.196" font-family="Source Sans Pro" font-size="10" font-stretch="normal" font-style="normal" font-variant="normal" font-weight="300" text-anchor="middle" writing-mode="lr-tb" style="text-align:center;line-height:125%;-inkscape-font-specification:Source Sans Pro Light">0.81</tspan></text><text id="text3939-8-7-2" x="480" y="466.196" fill="#000" fill-opacity="1" stroke="none" font-family="Source Sans Pro" font-size="10" font-stretch="normal" font-style="normal" font-variant="normal" font-weight="normal" letter-spacing="0" text-anchor="middle" word-spacing="0" writing-mode="lr-tb" xml:space="preserve" style="text-align:center;line-height:125%;-inkscape-font-specification:Source Sans Pro"><tspan id="tspan3941-4-9-3" x="480" y="466.196" font-family="Source Sans Pro" font-size="10" font-stretch="normal" font-style="normal" font-variant="normal" font-weight="300" text-anchor="middle" writing-mode="lr-tb" style="text-align:center;line-height:125%;-inkscape-font-specification:Source Sans Pro Light">0.90</tspan></text><text id="text3939-3-7" x="320.075" y="346.196" fill="#000" fill-opacity="1" stroke="none" font-family="Source Sans Pro" font-size="10" font-stretch="normal" font-style="normal" font-variant="normal" font-weight="normal" letter-spacing="0" text-anchor="middle" word-spacing="0" writing-mode="lr-tb" xml:space="preserve" style="text-align:center;line-height:125%;-inkscape-font-specification:Source Sans Pro"><tspan id="tspan3941-7-7" x="320.075" y="346.196" font-family="Source Sans Pro" font-size="10" font-stretch="normal" font-style="normal" font-variant="normal" font-weight="300" text-anchor="middle" writing-mode="lr-tb" style="text-align:center;line-height:125%;-inkscape-font-specification:Source Sans Pro Light">0.43</tspan></text><text id="text3939-4-0-4" x="400" y="346.196" fill="#000" fill-opacity="1" stroke="none" font-family="Source Sans Pro" font-size="10" font-stretch="normal" font-style="normal" font-variant="normal" font-weight="normal" letter-spacing="0" text-anchor="middle" word-spacing="0" writing-mode="lr-tb" xml:space="preserve" style="text-align:center;line-height:125%;-inkscape-font-specification:Source Sans Pro"><tspan id="tspan3941-0-8-5" x="400" y="346.196" fill="#000" fill-opacity="1" font-family="Source Sans Pro" font-size="10" font-stretch="normal" font-style="normal" font-variant="normal" font-weight="300" text-anchor="middle" writing-mode="lr-tb" style="text-align:center;line-height:125%;-inkscape-font-specification:Source Sans Pro Light">0.53</tspan></text><text id="text3939-8-7-2-6-4" x="480" y="346.196" fill="#000" fill-opacity="1" stroke="none" font-family="Source Sans Pro" font-size="10" font-stretch="normal" font-style="normal" font-variant="normal" font-weight="normal" letter-spacing="0" text-anchor="middle" word-spacing="0" writing-mode="lr-tb" xml:space="preserve" style="text-align:center;line-height:125%;-inkscape-font-specification:Source Sans Pro"><tspan id="tspan3941-4-9-3-3-7" x="480" y="346.196" fill="#000" fill-opacity="1" font-family="Source Sans Pro" font-size="10" font-stretch="normal" font-style="normal" font-variant="normal" font-weight="300" text-anchor="middle" writing-mode="lr-tb" style="text-align:center;line-height:125%;-inkscape-font-specification:Source Sans Pro Light">0.66</tspan></text><text id="text3939-0" x="320.075" y="386.196" fill="#000" fill-opacity="1" stroke="none" font-family="Source Sans Pro" font-size="10" font-stretch="normal" font-style="normal" font-variant="normal" font-weight="normal" letter-spacing="0" text-anchor="middle" word-spacing="0" writing-mode="lr-tb" xml:space="preserve" style="text-align:center;line-height:125%;-inkscape-font-specification:Source Sans Pro"><tspan id="tspan3941-2" x="320.075" y="386.196" font-family="Source Sans Pro" font-size="10" font-stretch="normal" font-style="normal" font-variant="normal" font-weight="300" text-anchor="middle" writing-mode="lr-tb" style="text-align:center;line-height:125%;-inkscape-font-specification:Source Sans Pro Light">0.48</tspan></text><text id="text3939-8-2" x="360" y="386.196" fill="#000" fill-opacity="1" stroke="none" font-family="Source Sans Pro" font-size="10" font-stretch="normal" font-style="normal" font-variant="normal" font-weight="normal" letter-spacing="0" text-anchor="middle" word-spacing="0" writing-mode="lr-tb" xml:space="preserve" style="text-align:center;line-height:125%;-inkscape-font-specification:Source Sans Pro"><tspan id="tspan3941-4-15" x="360" y="386.196" fill="#000" fill-opacity="1" font-family="Source Sans Pro" font-size="10" font-stretch="normal" font-style="normal" font-variant="normal" font-weight="300" text-anchor="middle" writing-mode="lr-tb" style="text-align:center;line-height:125%;-inkscape-font-specification:Source Sans Pro Light">0.53</tspan></text><text id="text3939-4-00" x="400" y="386.196" fill="#000" fill-opacity="1" stroke="none" font-family="Source Sans Pro" font-size="10" font-stretch="normal" font-style="normal" font-variant="normal" font-weight="normal" letter-spacing="0" text-anchor="middle" word-spacing="0" writing-mode="lr-tb" xml:space="preserve" style="text-align:center;line-height:125%;-inkscape-font-specification:Source Sans Pro"><tspan id="tspan3941-0-2" x="400" y="386.196" fill="#000" fill-opacity="1" stroke="none" font-family="Source Sans Pro" font-size="10" font-stretch="normal" font-style="normal" font-variant="normal" font-weight="300" text-anchor="middle" writing-mode="lr-tb" style="text-align:center;line-height:125%;-inkscape-font-specification:Source Sans Pro Light">0.59</tspan></text><text id="text3939-8-7-0" x="439.925" y="386.196" fill="#000" fill-opacity="1" stroke="none" font-family="Source Sans Pro" font-size="10" font-stretch="normal" font-style="normal" font-variant="normal" font-weight="normal" letter-spacing="0" text-anchor="middle" word-spacing="0" writing-mode="lr-tb" xml:space="preserve" style="text-align:center;line-height:125%;-inkscape-font-specification:Source Sans Pro"><tspan id="tspan3941-4-9-5" x="439.925" y="386.196" fill="#000" fill-opacity="1" font-family="Source Sans Pro" font-size="10" font-stretch="normal" font-style="normal" font-variant="normal" font-weight="300" text-anchor="middle" writing-mode="lr-tb" style="text-align:center;line-height:125%;-inkscape-font-specification:Source Sans Pro Light">0.66</tspan></text><text id="text3939-8-7-2-8" x="480" y="386.196" fill="#000" fill-opacity="1" stroke="none" font-family="Source Sans Pro" font-size="10" font-stretch="normal" font-style="normal" font-variant="normal" font-weight="normal" letter-spacing="0" text-anchor="middle" word-spacing="0" writing-mode="lr-tb" xml:space="preserve" style="text-align:center;line-height:125%;-inkscape-font-specification:Source Sans Pro"><tspan id="tspan3941-4-9-3-0" x="480" y="386.196" fill="#000" fill-opacity="1" font-family="Source Sans Pro" font-size="10" font-stretch="normal" font-style="normal" font-variant="normal" font-weight="300" text-anchor="middle" writing-mode="lr-tb" style="text-align:center;line-height:125%;-inkscape-font-specification:Source Sans Pro Light">0.73</tspan></text><text id="text3939-3-2" x="320.075" y="506.196" fill="#000" fill-opacity="1" stroke="none" font-family="Source Sans Pro" font-size="10" font-stretch="normal" font-style="normal" font-variant="normal" font-weight="normal" letter-spacing="0" text-anchor="middle" word-spacing="0" writing-mode="lr-tb" xml:space="preserve" style="text-align:center;line-height:125%;-inkscape-font-specification:Source Sans Pro"><tspan id="tspan3941-7-5" x="320.075" y="506.196" font-family="Source Sans Pro" font-size="10" font-stretch="normal" font-style="normal" font-variant="normal" font-weight="300" text-anchor="middle" writing-mode="lr-tb" style="text-align:center;line-height:125%;-inkscape-font-specification:Source Sans Pro Light">0.66</tspan></text><text id="text3939-8-9-1" x="360" y="506.196" fill="#000" fill-opacity="1" stroke="none" font-family="Source Sans Pro" font-size="10" font-stretch="normal" font-style="normal" font-variant="normal" font-weight="normal" letter-spacing="0" text-anchor="middle" word-spacing="0" writing-mode="lr-tb" xml:space="preserve" style="text-align:center;line-height:125%;-inkscape-font-specification:Source Sans Pro"><tspan id="tspan3941-4-1-1" x="360" y="506.196" font-family="Source Sans Pro" font-size="10" font-stretch="normal" font-style="normal" font-variant="normal" font-weight="300" text-anchor="middle" writing-mode="lr-tb" style="text-align:center;line-height:125%;-inkscape-font-specification:Source Sans Pro Light">0.73</tspan></text><text id="text3939-4-0-2" x="400" y="506.196" fill="#000" fill-opacity="1" stroke="none" font-family="Source Sans Pro" font-size="10" font-stretch="normal" font-style="normal" font-variant="normal" font-weight="normal" letter-spacing="0" text-anchor="middle" word-spacing="0" writing-mode="lr-tb" xml:space="preserve" style="text-align:center;line-height:125%;-inkscape-font-specification:Source Sans Pro"><tspan id="tspan3941-0-8-6" x="400" y="506.196" font-family="Source Sans Pro" font-size="10" font-stretch="normal" font-style="normal" font-variant="normal" font-weight="300" text-anchor="middle" writing-mode="lr-tb" style="text-align:center;line-height:125%;-inkscape-font-specification:Source Sans Pro Light">0.81</tspan></text><text id="text3939-8-7-23-9" x="439.925" y="506.196" fill="#000" fill-opacity="1" stroke="none" font-family="Source Sans Pro" font-size="10" font-stretch="normal" font-style="normal" font-variant="normal" font-weight="normal" letter-spacing="0" text-anchor="middle" word-spacing="0" writing-mode="lr-tb" xml:space="preserve" style="text-align:center;line-height:125%;-inkscape-font-specification:Source Sans Pro"><tspan id="tspan3941-4-9-2-1" x="439.925" y="506.196" font-family="Source Sans Pro" font-size="10" font-stretch="normal" font-style="normal" font-variant="normal" font-weight="300" text-anchor="middle" writing-mode="lr-tb" style="text-align:center;line-height:125%;-inkscape-font-specification:Source Sans Pro Light">0.90</tspan></text><text id="text3939-8-7-2-6-5" x="480" y="506.196" fill="#000" fill-opacity="1" stroke="none" font-family="Source Sans Pro" font-size="10" font-stretch="normal" font-style="normal" font-variant="normal" font-weight="normal" letter-spacing="0" text-anchor="middle" word-spacing="0" writing-mode="lr-tb" xml:space="preserve" style="text-align:center;line-height:125%;-inkscape-font-specification:Source Sans Pro"><tspan id="tspan3941-4-9-3-3-8" x="480" y="506.196" font-family="Source Sans Pro" font-size="10" font-stretch="normal" font-style="normal" font-variant="normal" font-weight="normal" text-anchor="middle" writing-mode="lr" style="text-align:center;line-height:125%;-inkscape-font-specification:Source Sans Pro">1.00</tspan></text><g id="g3916"><g id="g3759" transform="matrix(4,0,0,4,-899,-1568.0865)"><path id="path2987" fill="none" stroke="#000" stroke-linecap="butt" stroke-linejoin="miter" stroke-opacity="1" stroke-width=".25" d="m 299.75,472.61217 10,0 0,10 10,0 0,-10 10,0 0,10 10,0 0,-10 10,0 0,50 -50,0 z"/><path id="path2989" fill="none" stroke="#000" stroke-linecap="butt" stroke-linejoin="miter" stroke-opacity="1" stroke-width=".25" d="m 309.75,512.61217 0,-20 20,0 0,10 -10,0 0,10 z"/></g><path id="path3763" fill="none" stroke="#000" stroke-dasharray="1.5 1.5" stroke-dashoffset="0" stroke-linecap="butt" stroke-linejoin="miter" stroke-miterlimit="4" stroke-opacity="1" stroke-width=".5" d="m 420,362.36218 0,40"/><path id="path3763-3" fill="none" stroke="#000" stroke-dasharray="1.5 1.5" stroke-dashoffset="0" stroke-linecap="butt" stroke-linejoin="miter" stroke-miterlimit="4" stroke-opacity="1" stroke-width=".5" d="m 380,362.36218 0,40"/><path id="path3763-9" fill="none" stroke="#000" stroke-dasharray="1.5 1.5" stroke-dashoffset="0" stroke-linecap="butt" stroke-linejoin="miter" stroke-miterlimit="4" stroke-opacity="1" stroke-width=".5" d="m 340,362.36218 0,40"/><path id="path3763-0" fill="none" stroke="#000" stroke-dasharray="1.5 1.5" stroke-dashoffset="0" stroke-linecap="butt" stroke-linejoin="miter" stroke-miterlimit="4" stroke-opacity="1" stroke-width=".5" d="m 340,482.36218 0,40"/><path id="path3763-5" fill="none" stroke="#000" stroke-dasharray="1.5 1.5" stroke-dashoffset="0" stroke-linecap="butt" stroke-linejoin="miter" stroke-miterlimit="4" stroke-opacity="1" stroke-width=".5" d="m 380,482.36218 0,40"/><path id="path3763-56" fill="none" stroke="#000" stroke-dasharray="1.5 1.5" stroke-dashoffset="0" stroke-linecap="butt" stroke-linejoin="miter" stroke-miterlimit="4" stroke-opacity="1" stroke-width=".5" d="m 420,442.36218 0,80"/><path id="path3763-9-0" fill="none" stroke="#000" stroke-dasharray="1.5 1.5" stroke-dashoffset="0" stroke-linecap="butt" stroke-linejoin="miter" stroke-miterlimit="4" stroke-opacity="1" stroke-width=".5" d="m 300,402.36218 40,0"/><path id="path3763-9-7" fill="none" stroke="#000" stroke-dasharray="1.5 1.5" stroke-dashoffset="0" stroke-linecap="butt" stroke-linejoin="miter" stroke-miterlimit="4" stroke-opacity="1" stroke-width=".5" d="m 300,362.36218 40,0"/><path id="path3763-9-0-5" fill="none" stroke="#000" stroke-dasharray="1.5 1.5" stroke-dashoffset="0" stroke-linecap="butt" stroke-linejoin="miter" stroke-miterlimit="4" stroke-opacity="1" stroke-width=".5" d="m 300,482.36218 40,0"/><path id="path3763-9-7-6" fill="none" stroke="#000" stroke-dasharray="1.5 1.5" stroke-dashoffset="0" stroke-linecap="butt" stroke-linejoin="miter" stroke-miterlimit="4" stroke-opacity="1" stroke-width=".5" d="m 300,442.36218 40,0"/><path id="path3763-9-0-1" fill="none" stroke="#000" stroke-dasharray="1.5 1.5" stroke-dashoffset="0" stroke-linecap="butt" stroke-linejoin="miter" stroke-miterlimit="4" stroke-opacity="1" stroke-width=".5" d="m 420,442.36218 80,0"/><path id="path3763-9-7-8" fill="none" stroke="#000" stroke-dasharray="1.5 1.5" stroke-dashoffset="0" stroke-linecap="butt" stroke-linejoin="miter" stroke-miterlimit="4" stroke-opacity="1" stroke-width=".5" d="m 420,402.36218 80,0"/><path id="path3763-9-7-2" fill="none" stroke="#000" stroke-dasharray="1.5 1.5" stroke-dashoffset="0" stroke-linecap="butt" stroke-linejoin="miter" stroke-miterlimit="4" stroke-opacity="1" stroke-width=".5" d="m 380,362.36218 40,0"/><path id="path3763-9-7-9" fill="none" stroke="#000" stroke-dasharray="1.5 1.5" stroke-dashoffset="0" stroke-linecap="butt" stroke-linejoin="miter" stroke-miterlimit="4" stroke-opacity="1" stroke-width=".5" d="m 460,362.36218 40,0"/><path id="path3763-9-7-3" fill="none" stroke="#000" stroke-dasharray="1.5 1.5" stroke-dashoffset="0" stroke-linecap="butt" stroke-linejoin="miter" stroke-miterlimit="4" stroke-opacity="1" stroke-width=".5" d="m 380,482.36218 120,0"/><path id="path3763-56-5" fill="none" stroke="#000" stroke-dasharray="1.5 1.5" stroke-dashoffset="0" stroke-linecap="butt" stroke-linejoin="miter" stroke-miterlimit="4" stroke-opacity="1" stroke-width=".5" d="m 460,362.36218 0,160"/></g><path id="path4386-7" fill="none" stroke="#000" stroke-linecap="butt" stroke-linejoin="miter" stroke-opacity="1" stroke-width="1" marker-end="url(#Arrow1Mend)" d="m 319.5,472.86218 0,20"/><path id="path4386-7-8-1" fill="none" stroke="#000" stroke-linecap="butt" stroke-linejoin="miter" stroke-opacity="1" stroke-width="1" marker-end="url(#Arrow1Mend)" d="m 439.5,392.86218 0,20"/><path id="path4386" fill="none" stroke="#000" stroke-linecap="butt" stroke-linejoin="miter" stroke-opacity="1" stroke-width="1" marker-end="url(#Arrow1Mend)" d="m 319.5,352.86218 0,20"/><path id="path4386-9" fill="none" stroke="#000" stroke-linecap="butt" stroke-linejoin="miter" stroke-opacity="1" stroke-width="1" marker-end="url(#Arrow1Mend)" d="m 319.5,392.86218 0,20"/><path id="path4386-0" fill="none" stroke="#000" stroke-linecap="butt" stroke-linejoin="miter" stroke-opacity="1" stroke-width="1" marker-end="url(#Arrow1Mend)" d="m 319.5,432.86218 0,20"/><path id="path4386-7-9" fill="none" stroke="#000" stroke-linecap="butt" stroke-linejoin="miter" stroke-opacity="1" stroke-width="1" marker-end="url(#Arrow1Mend)" d="m 399.5,352.86218 0,20"/><path id="path4386-7-39-3" fill="none" stroke="#000" stroke-linecap="butt" stroke-linejoin="miter" stroke-opacity="1" stroke-width="1" marker-end="url(#Arrow1MendSr)" d="m 369.5,382.86218 20,0"/><path id="path4386-7-8" fill="none" stroke="#000" stroke-linecap="butt" stroke-linejoin="miter" stroke-opacity="1" stroke-width="1" marker-end="url(#Arrow1Mend)" d="m 479.5,352.86218 0,20"/><path id="path4386-7-39" fill="none" stroke="#000" stroke-linecap="butt" stroke-linejoin="miter" stroke-opacity="1" stroke-width="1" marker-end="url(#Arrow1Mend)" d="m 409.5,382.86218 20,0"/><path id="path4386-7-39-4" fill="none" stroke="#000" stroke-linecap="butt" stroke-linejoin="miter" stroke-opacity="1" stroke-width="1" marker-end="url(#Arrow1Mend)" d="m 329.5,502.86218 20,0"/><path id="path4386-7-39-0" fill="none" stroke="#000" stroke-linecap="butt" stroke-linejoin="miter" stroke-opacity="1" stroke-width="1" marker-end="url(#Arrow1Mend)" d="m 449.5,502.86218 20,0"/><path id="path4386-7-8-1-5-6" fill="none" stroke="#000" stroke-linecap="butt" stroke-linejoin="miter" stroke-opacity="1" stroke-width="1" marker-end="url(#Arrow1Mend)" d="m 479.5,472.86218 0,20"/><path id="path4386-7-39-2" fill="none" stroke="#000" stroke-linecap="butt" stroke-linejoin="miter" stroke-opacity="1" stroke-width="1" marker-end="url(#Arrow1Mend)" d="m 409.5,502.86218 20,0"/><path id="path4386-7-8-1-5" fill="none" stroke="#000" stroke-linecap="butt" stroke-linejoin="miter" stroke-opacity="1" stroke-width="1" marker-end="url(#Arrow1Mend)" d="m 439.5,472.86218 0,20"/><path id="path4386-7-8-1-5-6-0" fill="none" stroke="#000" stroke-linecap="butt" stroke-linejoin="miter" stroke-opacity="1" stroke-width="1" marker-end="url(#Arrow1MendzC)" d="m 479.5,432.86218 0,20"/><path id="path4386-7-39-6" fill="none" stroke="#000" stroke-linecap="butt" stroke-linejoin="miter" stroke-opacity="1" stroke-width="1" marker-end="url(#Arrow1Mend)" d="m 369.5,502.86218 20,0"/><path id="path4386-7-39-9" fill="none" stroke="#000" stroke-linecap="butt" stroke-linejoin="miter" stroke-opacity="1" stroke-width="1" marker-end="url(#Arrow1Mend)" d="m 409.5,462.86218 20,0"/><path id="path4386-7-8-1-4" fill="none" stroke="#000" stroke-linecap="butt" stroke-linejoin="miter" stroke-opacity="1" stroke-width="1" marker-end="url(#Arrow1Mend)" d="m 439.5,432.86218 0,20"/><path id="path4386-7-8-8" fill="none" stroke="#000" stroke-linecap="butt" stroke-linejoin="miter" stroke-opacity="1" stroke-width="1" marker-end="url(#Arrow1Mend)" d="m 479.5,392.86218 0,20"/></g></svg>