<svg xmlns="http://www.w3.org/2000/svg" xmlns:svg="http://www.w3.org/2000/svg" id="svg2" width="201" height="201" version="1.1"><defs id="defs4"><marker id="Arrow1Mend" orient="auto" overflow="visible" refX="0" refY="0"><path id="path4908" fill-rule="evenodd" stroke="#000" stroke-width="1pt" marker-start="none" d="M 0,0 5,-5 -12.5,0 5,5 0,0 z" transform="matrix(-0.4,0,0,-0.4,-4,0)"/></marker><marker id="marker5852" orient="auto" overflow="visible" refX="0" refY="0"><path id="path5854" fill-rule="evenodd" stroke="#000" stroke-width="1pt" marker-start="none" d="M 0,0 5,-5 -12.5,0 5,5 0,0 z" transform="matrix(-0.4,0,0,-0.4,-4,0)"/></marker><marker id="marker5856" orient="auto" overflow="visible" refX="0" refY="0"><path id="path5858" fill-rule="evenodd" stroke="#000" stroke-width="1pt" marker-start="none" d="M 0,0 5,-5 -12.5,0 5,5 0,0 z" transform="matrix(-0.4,0,0,-0.4,-4,0)"/></marker><marker id="marker5860" orient="auto" overflow="visible" refX="0" refY="0"><path id="path5862" fill-rule="evenodd" stroke="#000" stroke-width="1pt" marker-start="none" d="M 0,0 5,-5 -12.5,0 5,5 0,0 z" transform="matrix(-0.4,0,0,-0.4,-4,0)"/></marker><marker id="marker5864" orient="auto" overflow="visible" refX="0" refY="0"><path id="path5866" fill-rule="evenodd" stroke="#000" stroke-width="1pt" marker-start="none" d="M 0,0 5,-5 -12.5,0 5,5 0,0 z" transform="matrix(-0.4,0,0,-0.4,-4,0)"/></marker><marker id="marker5868" orient="auto" overflow="visible" refX="0" refY="0"><path id="path5870" fill-rule="evenodd" stroke="#000" stroke-width="1pt" marker-start="none" d="M 0,0 5,-5 -12.5,0 5,5 0,0 z" transform="matrix(-0.4,0,0,-0.4,-4,0)"/></marker><marker id="marker5872" orient="auto" overflow="visible" refX="0" refY="0"><path id="path5874" fill-rule="evenodd" stroke="#000" stroke-width="1pt" marker-start="none" d="M 0,0 5,-5 -12.5,0 5,5 0,0 z" transform="matrix(-0.4,0,0,-0.4,-4,0)"/></marker><marker id="marker5876" orient="auto" overflow="visible" refX="0" refY="0"><path id="path5878" fill-rule="evenodd" stroke="#000" stroke-width="1pt" marker-start="none" d="M 0,0 5,-5 -12.5,0 5,5 0,0 z" transform="matrix(-0.4,0,0,-0.4,-4,0)"/></marker><marker id="marker5880" orient="auto" overflow="visible" refX="0" refY="0"><path id="path5882" fill-rule="evenodd" stroke="#000" stroke-width="1pt" marker-start="none" d="M 0,0 5,-5 -12.5,0 5,5 0,0 z" transform="matrix(-0.4,0,0,-0.4,-4,0)"/></marker><marker id="marker5884" orient="auto" overflow="visible" refX="0" refY="0"><path id="path5886" fill-rule="evenodd" stroke="#000" stroke-width="1pt" marker-start="none" d="M 0,0 5,-5 -12.5,0 5,5 0,0 z" transform="matrix(-0.4,0,0,-0.4,-4,0)"/></marker><marker id="marker5888" orient="auto" overflow="visible" refX="0" refY="0"><path id="path5890" fill-rule="evenodd" stroke="#000" stroke-width="1pt" marker-start="none" d="M 0,0 5,-5 -12.5,0 5,5 0,0 z" transform="matrix(-0.4,0,0,-0.4,-4,0)"/></marker><marker id="marker5892" orient="auto" overflow="visible" refX="0" refY="0"><path id="path5894" fill-rule="evenodd" stroke="#000" stroke-width="1pt" marker-start="none" d="M 0,0 5,-5 -12.5,0 5,5 0,0 z" transform="matrix(-0.4,0,0,-0.4,-4,0)"/></marker><marker id="marker5896" orient="auto" overflow="visible" refX="0" refY="0"><path id="path5898" fill-rule="evenodd" stroke="#000" stroke-width="1pt" marker-start="none" d="M 0,0 5,-5 -12.5,0 5,5 0,0 z" transform="matrix(-0.4,0,0,-0.4,-4,0)"/></marker><marker id="marker5900" orient="auto" overflow="visible" refX="0" refY="0"><path id="path5902" fill-rule="evenodd" stroke="#000" stroke-width="1pt" marker-start="none" d="M 0,0 5,-5 -12.5,0 5,5 0,0 z" transform="matrix(-0.4,0,0,-0.4,-4,0)"/></marker><marker id="marker5904" orient="auto" overflow="visible" refX="0" refY="0"><path id="path5906" fill-rule="evenodd" stroke="#000" stroke-width="1pt" marker-start="none" d="M 0,0 5,-5 -12.5,0 5,5 0,0 z" transform="matrix(-0.4,0,0,-0.4,-4,0)"/></marker><marker id="marker5908" orient="auto" overflow="visible" refX="0" refY="0"><path id="path5910" fill-rule="evenodd" stroke="#000" stroke-width="1pt" marker-start="none" d="M 0,0 5,-5 -12.5,0 5,5 0,0 z" transform="matrix(-0.4,0,0,-0.4,-4,0)"/></marker><marker id="marker5912" orient="auto" overflow="visible" refX="0" refY="0"><path id="path5914" fill-rule="evenodd" stroke="#000" stroke-width="1pt" marker-start="none" d="M 0,0 5,-5 -12.5,0 5,5 0,0 z" transform="matrix(-0.4,0,0,-0.4,-4,0)"/></marker><marker id="marker5916" orient="auto" overflow="visible" refX="0" refY="0"><path id="path5918" fill-rule="evenodd" stroke="#000" stroke-width="1pt" marker-start="none" d="M 0,0 5,-5 -12.5,0 5,5 0,0 z" transform="matrix(-0.4,0,0,-0.4,-4,0)"/></marker><marker id="marker5920" orient="auto" overflow="visible" refX="0" refY="0"><path id="path5922" fill-rule="evenodd" stroke="#000" stroke-width="1pt" marker-start="none" d="M 0,0 5,-5 -12.5,0 5,5 0,0 z" transform="matrix(-0.4,0,0,-0.4,-4,0)"/></marker><marker id="Arrow1MendJ" orient="auto" overflow="visible" refX="0" refY="0"><path id="path15629" fill="#00f" fill-rule="evenodd" stroke="#00f" stroke-width="1pt" marker-start="none" d="M 0,0 5,-5 -12.5,0 5,5 0,0 z" transform="matrix(-0.4,0,0,-0.4,-4,0)"/></marker><marker id="Arrow1MendY" orient="auto" overflow="visible" refX="0" refY="0"><path id="path15632" fill="#00f" fill-rule="evenodd" stroke="#00f" stroke-width="1pt" marker-start="none" d="M 0,0 5,-5 -12.5,0 5,5 0,0 z" transform="matrix(-0.4,0,0,-0.4,-4,0)"/></marker><marker id="Arrow1Mend2" orient="auto" overflow="visible" refX="0" refY="0"><path id="path15635" fill="#00f" fill-rule="evenodd" stroke="#00f" stroke-width="1pt" marker-start="none" d="M 0,0 5,-5 -12.5,0 5,5 0,0 z" transform="matrix(-0.4,0,0,-0.4,-4,0)"/></marker><marker id="Arrow1Mendx" orient="auto" overflow="visible" refX="0" refY="0"><path id="path15638" fill="#00f" fill-rule="evenodd" stroke="#00f" stroke-width="1pt" marker-start="none" d="M 0,0 5,-5 -12.5,0 5,5 0,0 z" transform="matrix(-0.4,0,0,-0.4,-4,0)"/></marker><marker id="Arrow1Mendj" orient="auto" overflow="visible" refX="0" refY="0"><path id="path15641" fill="#00f" fill-rule="evenodd" stroke="#00f" stroke-width="1pt" marker-start="none" d="M 0,0 5,-5 -12.5,0 5,5 0,0 z" transform="matrix(-0.4,0,0,-0.4,-4,0)"/></marker><marker id="Arrow1Mend2U" orient="auto" overflow="visible" refX="0" refY="0"><path id="path15644" fill="#00f" fill-rule="evenodd" stroke="#00f" stroke-width="1pt" marker-start="none" d="M 0,0 5,-5 -12.5,0 5,5 0,0 z" transform="matrix(-0.4,0,0,-0.4,-4,0)"/></marker><marker id="Arrow1Mend3" orient="auto" overflow="visible" refX="0" refY="0"><path id="path15647" fill="#00f" fill-rule="evenodd" stroke="#00f" stroke-width="1pt" marker-start="none" d="M 0,0 5,-5 -12.5,0 5,5 0,0 z" transform="matrix(-0.4,0,0,-0.4,-4,0)"/></marker><marker id="Arrow1Mende" orient="auto" overflow="visible" refX="0" refY="0"><path id="path15650" fill="#00f" fill-rule="evenodd" stroke="#00f" stroke-width="1pt" marker-start="none" d="M 0,0 5,-5 -12.5,0 5,5 0,0 z" transform="matrix(-0.4,0,0,-0.4,-4,0)"/></marker><marker id="Arrow1MendF" orient="auto" overflow="visible" refX="0" refY="0"><path id="path15653" fill="#00f" fill-rule="evenodd" stroke="#00f" stroke-width="1pt" marker-start="none" d="M 0,0 5,-5 -12.5,0 5,5 0,0 z" transform="matrix(-0.4,0,0,-0.4,-4,0)"/></marker><marker id="Arrow1Mend1" orient="auto" overflow="visible" refX="0" refY="0"><path id="path15656" fill="#00f" fill-rule="evenodd" stroke="#00f" stroke-width="1pt" marker-start="none" d="M 0,0 5,-5 -12.5,0 5,5 0,0 z" transform="matrix(-0.4,0,0,-0.4,-4,0)"/></marker><marker id="Arrow1Mend5" orient="auto" overflow="visible" refX="0" refY="0"><path id="path15659" fill="#00f" fill-rule="evenodd" stroke="#00f" stroke-width="1pt" marker-start="none" d="M 0,0 5,-5 -12.5,0 5,5 0,0 z" transform="matrix(-0.4,0,0,-0.4,-4,0)"/></marker><marker id="Arrow1MendW" orient="auto" overflow="visible" refX="0" refY="0"><path id="path15662" fill="#00f" fill-rule="evenodd" stroke="#00f" stroke-width="1pt" marker-start="none" d="M 0,0 5,-5 -12.5,0 5,5 0,0 z" transform="matrix(-0.4,0,0,-0.4,-4,0)"/></marker><marker id="Arrow1MendI" orient="auto" overflow="visible" refX="0" refY="0"><path id="path15665" fill="#00f" fill-rule="evenodd" stroke="#00f" stroke-width="1pt" marker-start="none" d="M 0,0 5,-5 -12.5,0 5,5 0,0 z" transform="matrix(-0.4,0,0,-0.4,-4,0)"/></marker><marker id="Arrow1Mendq" orient="auto" overflow="visible" refX="0" refY="0"><path id="path15668" fill="#00f" fill-rule="evenodd" stroke="#00f" stroke-width="1pt" marker-start="none" d="M 0,0 5,-5 -12.5,0 5,5 0,0 z" transform="matrix(-0.4,0,0,-0.4,-4,0)"/></marker><marker id="Arrow1MendG" orient="auto" overflow="visible" refX="0" refY="0"><path id="path15671" fill="#00f" fill-rule="evenodd" stroke="#00f" stroke-width="1pt" marker-start="none" d="M 0,0 5,-5 -12.5,0 5,5 0,0 z" transform="matrix(-0.4,0,0,-0.4,-4,0)"/></marker><marker id="Arrow1Mendk" orient="auto" overflow="visible" refX="0" refY="0"><path id="path15674" fill="#00f" fill-rule="evenodd" stroke="#00f" stroke-width="1pt" marker-start="none" d="M 0,0 5,-5 -12.5,0 5,5 0,0 z" transform="matrix(-0.4,0,0,-0.4,-4,0)"/></marker><marker id="Arrow1Mend4" orient="auto" overflow="visible" refX="0" refY="0"><path id="path15677" fill="#00f" fill-rule="evenodd" stroke="#00f" stroke-width="1pt" marker-start="none" d="M 0,0 5,-5 -12.5,0 5,5 0,0 z" transform="matrix(-0.4,0,0,-0.4,-4,0)"/></marker><marker id="Arrow1MendkA" orient="auto" overflow="visible" refX="0" refY="0"><path id="path15680" fill="#00f" fill-rule="evenodd" stroke="#00f" stroke-width="1pt" marker-start="none" d="M 0,0 5,-5 -12.5,0 5,5 0,0 z" transform="matrix(-0.4,0,0,-0.4,-4,0)"/></marker></defs><metadata id="metadata7"/><g id="layer1" transform="translate(-299.5,-321.86218)"><text id="text3939-8-7-2-6-5" x="480" y="506.196" fill="#000" fill-opacity="1" stroke="none" font-family="Source Sans Pro" font-size="10" font-stretch="normal" font-style="normal" font-variant="normal" font-weight="normal" letter-spacing="0" text-anchor="middle" word-spacing="0" writing-mode="lr-tb" xml:space="preserve" style="text-align:center;line-height:125%;-inkscape-font-specification:Source Sans Pro"><tspan id="tspan3941-4-9-3-3-8" x="480" y="506.196" font-family="Source Sans Pro" font-size="10" font-stretch="normal" font-style="normal" font-variant="normal" font-weight="normal" text-anchor="middle" writing-mode="lr" style="text-align:center;line-height:125%;-inkscape-font-specification:Source Sans Pro">1.00</tspan></text><g id="g3916"><g id="g3759" transform="matrix(4,0,0,4,-899,-1568.0865)"><path id="path2987" fill="none" stroke="#000" stroke-linecap="butt" stroke-linejoin="miter" stroke-opacity="1" stroke-width=".25" d="m 299.75,472.61217 10,0 0,10 10,0 0,-10 10,0 0,10 10,0 0,-10 10,0 0,50 -50,0 z"/><path id="path2989" fill="none" stroke="#000" stroke-linecap="butt" stroke-linejoin="miter" stroke-opacity="1" stroke-width=".25" d="m 309.75,512.61217 0,-20 20,0 0,10 -10,0 0,10 z"/></g><path id="path3763" fill="none" stroke="#000" stroke-dasharray="1.5 1.5" stroke-dashoffset="0" stroke-linecap="butt" stroke-linejoin="miter" stroke-miterlimit="4" stroke-opacity="1" stroke-width=".5" d="m 420,362.36218 0,40"/><path id="path3763-3" fill="none" stroke="#000" stroke-dasharray="1.5 1.5" stroke-dashoffset="0" stroke-linecap="butt" stroke-linejoin="miter" stroke-miterlimit="4" stroke-opacity="1" stroke-width=".5" d="m 380,362.36218 0,40"/><path id="path3763-9" fill="none" stroke="#000" stroke-dasharray="1.5 1.5" stroke-dashoffset="0" stroke-linecap="butt" stroke-linejoin="miter" stroke-miterlimit="4" stroke-opacity="1" stroke-width=".5" d="m 340,362.36218 0,40"/><path id="path3763-0" fill="none" stroke="#000" stroke-dasharray="1.5 1.5" stroke-dashoffset="0" stroke-linecap="butt" stroke-linejoin="miter" stroke-miterlimit="4" stroke-opacity="1" stroke-width=".5" d="m 340,482.36218 0,40"/><path id="path3763-5" fill="none" stroke="#000" stroke-dasharray="1.5 1.5" stroke-dashoffset="0" stroke-linecap="butt" stroke-linejoin="miter" stroke-miterlimit="4" stroke-opacity="1" stroke-width=".5" d="m 380,482.36218 0,40"/><path id="path3763-56" fill="none" stroke="#000" stroke-dasharray="1.5 1.5" stroke-dashoffset="0" stroke-linecap="butt" stroke-linejoin="miter" stroke-miterlimit="4" stroke-opacity="1" stroke-width=".5" d="m 420,442.36218 0,80"/><path id="path3763-9-0" fill="none" stroke="#000" stroke-dasharray="1.5 1.5" stroke-dashoffset="0" stroke-linecap="butt" stroke-linejoin="miter" stroke-miterlimit="4" stroke-opacity="1" stroke-width=".5" d="m 300,402.36218 40,0"/><path id="path3763-9-7" fill="none" stroke="#000" stroke-dasharray="1.5 1.5" stroke-dashoffset="0" stroke-linecap="butt" stroke-linejoin="miter" stroke-miterlimit="4" stroke-opacity="1" stroke-width=".5" d="m 300,362.36218 40,0"/><path id="path3763-9-0-5" fill="none" stroke="#000" stroke-dasharray="1.5 1.5" stroke-dashoffset="0" stroke-linecap="butt" stroke-linejoin="miter" stroke-miterlimit="4" stroke-opacity="1" stroke-width=".5" d="m 300,482.36218 40,0"/><path id="path3763-9-7-6" fill="none" stroke="#000" stroke-dasharray="1.5 1.5" stroke-dashoffset="0" stroke-linecap="butt" stroke-linejoin="miter" stroke-miterlimit="4" stroke-opacity="1" stroke-width=".5" d="m 300,442.36218 40,0"/><path id="path3763-9-0-1" fill="none" stroke="#000" stroke-dasharray="1.5 1.5" stroke-dashoffset="0" stroke-linecap="butt" stroke-linejoin="miter" stroke-miterlimit="4" stroke-opacity="1" stroke-width=".5" d="m 420,442.36218 80,0"/><path id="path3763-9-7-8" fill="none" stroke="#000" stroke-dasharray="1.5 1.5" stroke-dashoffset="0" stroke-linecap="butt" stroke-linejoin="miter" stroke-miterlimit="4" stroke-opacity="1" stroke-width=".5" d="m 420,402.36218 80,0"/><path id="path3763-9-7-2" fill="none" stroke="#000" stroke-dasharray="1.5 1.5" stroke-dashoffset="0" stroke-linecap="butt" stroke-linejoin="miter" stroke-miterlimit="4" stroke-opacity="1" stroke-width=".5" d="m 380,362.36218 40,0"/><path id="path3763-9-7-9" fill="none" stroke="#000" stroke-dasharray="1.5 1.5" stroke-dashoffset="0" stroke-linecap="butt" stroke-linejoin="miter" stroke-miterlimit="4" stroke-opacity="1" stroke-width=".5" d="m 460,362.36218 40,0"/><path id="path3763-9-7-3" fill="none" stroke="#000" stroke-dasharray="1.5 1.5" stroke-dashoffset="0" stroke-linecap="butt" stroke-linejoin="miter" stroke-miterlimit="4" stroke-opacity="1" stroke-width=".5" d="m 380,482.36218 120,0"/><path id="path3763-56-5" fill="none" stroke="#000" stroke-dasharray="1.5 1.5" stroke-dashoffset="0" stroke-linecap="butt" stroke-linejoin="miter" stroke-miterlimit="4" stroke-opacity="1" stroke-width=".5" d="m 460,362.36218 0,160"/></g></g></svg>